<?xml version="1.0" encoding="UTF-8" standalone="no"?>
<!-- Created with Inkscape (http://www.inkscape.org/) -->

<svg
   width="50"
   height="111.91782"
   viewBox="0 0 13.229167 29.61159"
   version="1.1"
   id="svg28800"
   inkscape:version="1.1.1 (50ffc5b540, 2022-01-11)"
   sodipodi:docname="figure.svg"
   xmlns:inkscape="http://www.inkscape.org/namespaces/inkscape"
   xmlns:sodipodi="http://sodipodi.sourceforge.net/DTD/sodipodi-0.dtd"
   xmlns:xlink="http://www.w3.org/1999/xlink"
   xmlns="http://www.w3.org/2000/svg"
   xmlns:svg="http://www.w3.org/2000/svg">
  <sodipodi:namedview
     id="namedview28802"
     pagecolor="#505050"
     bordercolor="#eeeeee"
     borderopacity="1"
     inkscape:pageshadow="0"
     inkscape:pageopacity="0"
     inkscape:pagecheckerboard="0"
     inkscape:document-units="mm"
     showgrid="false"
     fit-margin-top="0"
     fit-margin-left="0"
     fit-margin-right="0"
     fit-margin-bottom="0"
     inkscape:zoom="6.2074636"
     inkscape:cx="24.889393"
     inkscape:cy="48.087274"
     inkscape:window-width="1920"
     inkscape:window-height="1044"
     inkscape:window-x="0"
     inkscape:window-y="0"
     inkscape:window-maximized="1"
     inkscape:current-layer="g7512"
     units="px" />
  <defs
     id="defs28797">
    <linearGradient
       inkscape:collect="always"
       xlink:href="#linearGradient5750"
       id="linearGradient5539"
       gradientUnits="userSpaceOnUse"
       gradientTransform="matrix(4.9516483,-0.3413488,0.34013148,4.9339902,34.512015,-664.47066)"
       x1="21.240044"
       y1="265.8114"
       x2="74.651001"
       y2="274.35999" />
    <linearGradient
       id="linearGradient5750"
       y2="274.35999"
       gradientUnits="userSpaceOnUse"
       x2="74.651001"
       y1="262.66"
       x1="12.615"
       inkscape:collect="always">
      <stop
         id="stop5744"
         style="stop-color:#ffffff;stop-opacity:0.48889592"
         offset="0" />
      <stop
         id="stop5746"
         style="stop-color:#878787;stop-opacity:0"
         offset="0.56347233" />
      <stop
         id="stop5748"
         style="stop-color:#000000;stop-opacity:0.29668146"
         offset="1" />
    </linearGradient>
    <radialGradient
       inkscape:collect="always"
       xlink:href="#linearGradient7149"
       id="radialGradient3078-3"
       gradientUnits="userSpaceOnUse"
       gradientTransform="matrix(1.5249,0.25538,-0.24081,1.4379,88.117003,90.731021)"
       cx="-10.714"
       cy="84.504997"
       r="21.214001" />
    <linearGradient
       id="linearGradient7149">
      <stop
         id="stop7143"
         style="stop-color:#ffffff;stop-opacity:0.89999998"
         offset="0" />
      <stop
         id="stop7145"
         style="stop-color:#bababa;stop-opacity:0"
         offset=".5" />
      <stop
         id="stop7147"
         style="stop-color:#121212;stop-opacity:0.73725492"
         offset="1" />
    </linearGradient>
  </defs>
  <g
     inkscape:label="Ebene 1"
     inkscape:groupmode="layer"
     id="layer1"
     transform="translate(-74.004117,-68.208822)">
    <g
       id="g7512"
       transform="matrix(0.25431967,-0.01753188,0.01746936,0.25341275,62.420847,20.463607)"
       inkscape:label="g7512">
      <path
         id="path4102"
         style="fill:currentColor;fill-opacity:1;stroke-width:4.95454"
         d="M 126.03711,0 A 102.44664,102.813 86.056419 0 0 119.31445,0.24414062 102.44664,102.813 86.056419 0 0 23.791016,109.51953 102.44664,102.813 86.056419 0 0 72.486328,189.66602 C 61.042576,311.30402 -7.207983,393.73173 0.62304688,521.90625 23.477407,569.90513 83.859,577.28439 130.94922,576.48242 177.26575,575.69364 254.65361,549.07511 257.23047,518.4707 262.99548,390.93853 194.32027,309.83495 180.38672,189.57617 A 102.44664,102.813 86.056419 0 0 228.92969,95.376953 102.44664,102.813 86.056419 0 0 126.03711,0 Z"
         transform="matrix(0.20099777,0.01390565,-0.01385606,0.20171711,32.450175,190.65377)" />
    </g>
    <g
       id="g7344"
       transform="matrix(1.3101236,-0.0903152,0.08999312,1.3054516,82.681585,-174.97255)">
      <g
         id="g29798"
         transform="matrix(0.19412031,0,0,0.19412031,-25.626593,147.93452)">
        <path
           id="path4102-2-7"
           style="fill:url(#linearGradient5539);stroke-width:4.955;stroke-miterlimit:4;stroke-dasharray:none"
           d="m 440.42969,454.71289 a 102.44664,102.813 86.056413 0 1 -46.98242,15.07617 102.44664,102.813 86.056413 0 1 -60.91797,-14.98633 c -11.44389,121.63775 -79.6943,204.06593 -71.86328,332.24024 22.85436,47.99888 83.234,55.37814 130.32421,54.57617 46.31653,-0.78878 123.7044,-27.40921 126.28125,-58.01367 C 523.0365,656.07339 454.3633,574.97155 440.42969,454.71289 Z"
           transform="matrix(0.20099777,0.01390565,-0.01385606,0.20171711,-16.143784,133.5552)" />
        <ellipse
           id="path4028-9-2"
           style="fill:url(#radialGradient3078-3);fill-opacity:1"
           cx="56.428715"
           cy="213.07648"
           rx="20.715881"
           ry="20.714285" />
      </g>
    </g>
  </g>
</svg>
