<?xml version="1.0" encoding="UTF-8" standalone="no"?>
<!-- Created with Inkscape (http://www.inkscape.org/) -->

<svg
   width="118.64139mm"
   height="231.92654mm"
   viewBox="0 0 118.64139 231.92654"
   version="1.1"
   id="svg53250"
   inkscape:version="1.1.1 (eb90963e84, 2021-10-02)"
   sodipodi:docname="figure.svg"
   xmlns:inkscape="http://www.inkscape.org/namespaces/inkscape"
   xmlns:sodipodi="http://sodipodi.sourceforge.net/DTD/sodipodi-0.dtd"
   xmlns="http://www.w3.org/2000/svg"
   xmlns:svg="http://www.w3.org/2000/svg">
  <sodipodi:namedview
     id="namedview53252"
     pagecolor="#505050"
     bordercolor="#eeeeee"
     borderopacity="1"
     inkscape:pageshadow="0"
     inkscape:pageopacity="0"
     inkscape:pagecheckerboard="0"
     inkscape:document-units="mm"
     showgrid="false"
     fit-margin-top="0"
     fit-margin-left="0"
     fit-margin-right="0"
     fit-margin-bottom="0"
     inkscape:zoom="0.27433372"
     inkscape:cx="271.56705"
     inkscape:cy="20.048574"
     inkscape:window-width="1920"
     inkscape:window-height="1044"
     inkscape:window-x="0"
     inkscape:window-y="0"
     inkscape:window-maximized="1"
     inkscape:current-layer="layer1" />
  <defs
     id="defs53247" />
  <g
     inkscape:label="Ebene 1"
     inkscape:groupmode="layer"
     id="layer1"
     transform="translate(-52.172502,-34.076044)">
    <g
       id="g53403"
       transform="translate(15.603863)">
      <path
         d="m 107.2886,265.69786 c 7.02932,-0.87812 16.91616,-3.29099 21.51196,-5.24994 8.41053,-3.585 11.79609,-5.6207 16.29077,-9.79553 6.93175,-6.43845 9.19139,-11.13462 9.89943,-20.57363 0.50537,-6.7377 0.12074,-13.47002 -0.98435,-17.2293 -0.80475,-2.73756 -6.19809,-14.72938 -8.08956,-17.98677 -0.45897,-0.79036 -1.03551,-1.99901 -1.2812,-2.68586 -0.24569,-0.68684 -0.79742,-1.81248 -1.22603,-2.50143 -0.42865,-0.68895 -0.77238,-1.48161 -0.7639,-1.76151 0.008,-0.27993 -0.49236,-1.64794 -1.11294,-3.04007 -0.6206,-1.3921 -1.73867,-3.97205 -2.48457,-5.73331 -0.74588,-1.7612 -1.58235,-3.46786 -1.85876,-3.79253 -0.27641,-0.32467 -1.00371,-2.10066 -1.61628,-3.94666 -0.61252,-1.84597 -1.64277,-4.88119 -2.28943,-6.74489 -2.86242,-8.24968 -4.72141,-14.77973 -5.25923,-18.47395 -0.18141,-1.24619 -0.53659,-2.60697 -0.7893,-3.0239 -0.74236,-1.22483 -3.02643,-13.04663 -2.68261,-13.88425 0.0787,-0.19171 0.79822,-0.7258 1.59889,-1.18684 1.72404,-0.99266 6.47263,-5.57678 9.67449,-9.33934 4.5778,-5.37943 7.75773,-11.71395 9.29572,-18.51747 0.80508,-3.561319 1.51951,-11.918289 1.27722,-14.94118 -0.10136,-1.264814 -0.15566,-3.512714 -0.12068,-4.995307 0.0828,-3.509407 -0.57488,-7.263977 -2.19735,-12.545457 -2.31629,-7.539963 -5.29985,-12.707831 -10.69491,-18.524828 -5.17939,-5.584402 -11.45962,-9.625912 -19.1634,-12.33215 -8.22779,-2.890334 -18.629324,-3.598254 -28.285607,-1.925187 -5.811084,1.006872 -13.858389,4.035663 -18.990101,7.147348 -3.533627,2.142728 -9.763313,8.068019 -12.589711,11.974618 -6.586672,9.103995 -8.908865,16.464359 -9.264965,29.366157 -0.225618,8.169804 0.18373,12.253886 1.876317,18.725016 1.558253,5.95743 3.521771,9.91369 7.511798,15.13522 2.948916,3.85908 7.90407,8.54305 11.744399,11.10165 1.673037,1.11469 1.716058,1.54247 0.637442,6.34468 -0.368077,1.63886 -0.854649,4.00646 -1.081251,5.26135 -0.226634,1.25489 -0.706967,3.46384 -1.067501,4.90881 -0.360508,1.44495 -0.908553,3.85572 -1.217891,5.35731 -0.568145,2.75789 -2.149498,8.20677 -3.220368,11.09636 -0.320132,0.86382 -0.907875,2.59305 -1.306089,3.84273 -1.09814,3.4462 -2.934708,8.24741 -3.778297,9.87743 -0.414415,0.80068 -1.297726,2.78929 -1.962955,4.41912 -0.665252,1.62983 -1.54228,3.74735 -1.948976,4.70562 -0.406696,0.95829 -1.006054,2.52835 -1.331902,3.48906 -0.325821,0.96072 -0.89948,2.29333 -1.274773,2.96137 -0.375293,0.66802 -1.190342,2.39038 -1.811213,3.82744 -0.620871,1.43705 -2.352196,5.19633 -3.84741,8.35398 -2.836103,5.9894 -3.107877,6.74592 -4.076528,11.34702 -0.500343,2.37657 -1.88677,17.00311 -1.842108,19.43375 0.0078,0.43133 -0.148013,1.17539 -0.346578,1.65347 -0.22929,0.55215 -0.239583,0.94945 -0.02824,1.08913 0.183033,0.12094 0.318402,0.72622 0.300865,1.34514 -0.01876,0.61883 0.204669,1.60888 0.493813,2.19998 0.289171,0.59113 0.905706,2.10709 1.370092,3.36881 0.825828,2.24382 1.554673,3.27776 4.543168,6.44488 2.281129,2.41744 2.890777,2.98236 3.231851,2.99453 0.173514,0.005 0.889532,0.5715 1.59116,1.25626 4.095871,3.99736 19.51402,9.49077 30.824201,10.98251 2.126766,0.28052 4.340886,0.59066 4.92025,0.68924 2.531477,0.43069 19.909028,0.45406 23.293068,0.0313 z"
         style="fill:#14502c;fill-opacity:1;stroke-width:0.352777"
         id="path781" />
      <path
         d="m 96.800483,244.48598 c -9.256106,0.61624 -8.019113,-6.97074 -7.125657,-20.41242 0.893456,-13.44173 0.768612,-45.31508 -1.113478,-59.46658 3.561279,-23.36414 -5.773983,-31.55818 0.613172,-33.73364 22.88358,-1.08161 25.6117,-1.78278 24.29713,8.16388 -0.55927,6.71536 0.52419,18.39452 2.98117,26.09183 2.45698,7.69734 4.71983,12.21439 6.86942,22.72395 2.14959,10.50957 7.83792,28.62403 10.74957,39.0216 2.91166,10.39752 -7.66277,11.87262 -14.56059,14.05951 -6.89784,2.18683 -13.45463,2.93563 -22.710737,3.55187 z m -39.756589,-9.92809 c -7.118708,0.80542 -9.720498,-6.75857 -5.075995,-16.54382 4.644531,-9.78521 14.894174,-33.66087 16.127473,-43.43278 1.233329,-9.77196 6.853428,-18.14483 6.087629,-5.87316 -0.765776,12.27169 -8.021595,36.353 -11.407124,47.19557 -3.385553,10.84258 1.386726,17.8488 -5.731983,18.65419 z m 88.574496,-11.79468 c -4.26024,-5.6112 -10.13506,-26.32376 -13.80566,-35.36182 -3.6706,-9.03809 1.55858,-6.61213 3.24682,1.07053 1.68825,7.68265 12.7501,24.65141 12.61334,31.10089 -0.1368,6.44954 2.20574,8.80158 -2.0545,3.1904 z m -16.42188,-41.4016 c -2.88906,-1.5105 -0.73273,-8.83068 1.03418,-4.69326 1.76688,4.13742 1.85488,6.20377 -1.03418,4.69326 z"
         style="fill:#000000;fill-opacity:0.203914;stroke-width:0.352777"
         id="path7303"
         sodipodi:nodetypes="sscccsssssssssssssssssss" />
      <path
         d="M 86.136441,92.944795 C 93.431506,84.635503 75.924159,76.323512 81.71819,71.139239 c 5.794031,-5.184245 15.230183,-3.293639 22.00825,-1.605015 6.77807,1.688624 11.99975,7.158699 16.40245,11.12004 4.40269,3.961316 9.17414,8.281909 5.14112,14.836776 -4.03302,6.55487 -13.84152,7.64299 -24.24597,9.6234 -10.404446,1.9804 -22.182664,-3.86035 -14.887599,-12.169645 z"
         style="fill:#000000;fill-opacity:0.203922;stroke-width:0.352777"
         id="path50938" />
    </g>
  </g>
</svg>
