<?xml version="1.0" encoding="UTF-8" standalone="no"?>
<svg
   width="1200px"
   height="1200px"
   viewBox="0 0 1200 1200"
   version="1.1"
   id="svg1620"
   sodipodi:docname="mensch_aergere_dich_nicht_4er.svg"
   inkscape:version="1.1.1 (50ffc5b540, 2022-01-11)"
   xmlns:inkscape="http://www.inkscape.org/namespaces/inkscape"
   xmlns:sodipodi="http://sodipodi.sourceforge.net/DTD/sodipodi-0.dtd"
   xmlns:xlink="http://www.w3.org/1999/xlink"
   xmlns="http://www.w3.org/2000/svg"
   xmlns:svg="http://www.w3.org/2000/svg">
  <sodipodi:namedview
     id="namedview1622"
     pagecolor="#505050"
     bordercolor="#eeeeee"
     borderopacity="1"
     inkscape:pageshadow="0"
     inkscape:pageopacity="0"
     inkscape:pagecheckerboard="0"
     showgrid="false"
     inkscape:zoom="0.34791667"
     inkscape:cx="915.44911"
     inkscape:cy="671.13773"
     inkscape:window-width="960"
     inkscape:window-height="1044"
     inkscape:window-x="0"
     inkscape:window-y="0"
     inkscape:window-maximized="0"
     inkscape:current-layer="svg1620" />
  <defs
     id="defs1355">
    <marker
       orient="auto"
       style="overflow:visible"
       id="Arrow"
       refX="-12"
       refY="0"
       markerUnits="userSpaceOnUse">
      <path
         style="fill:#000000; stroke:none;"
         d="M 0,0 L -60,-15 -45,0 -60,15 z"
         id="path1352" />
    </marker>
  </defs>
  <rect
     x="0"
     y="0"
     width="1200"
     height="1200"
     style="fill:#000000; stroke:none;"
     id="rect1357" />
  <rect
     x="10"
     y="10"
     width="1180"
     height="1180"
     style="fill:#ffff99;stroke:none"
     id="rect1359" />
  <g
     style="display:none;"
     id="g1388">
    <circle
       id="Feld1"
       cx="0"
       xy="0"
       r="40"
       style="stroke:#000000; stroke-width:5;" />
    <circle
       id="Feld2"
       cx="0"
       xy="0"
       r="30"
       style="stroke:#000000; stroke-width:5;" />
    <g
       id="Pfeil"
       style="fill:none; stroke:#000000; stroke-linecap:round; stroke-width:2;">
      <polygon
         style="fill:#000000; stroke:none;"
         points="0,0 -10,25 0,15 10,25"
         id="polygon1363" />
      <line
         x1="0"
         y1="10"
         x2=""
         y2="135"
         id="line1365" />
      <line
         x1="0"
         y1="115"
         x2="-10"
         y2="125"
         id="line1367" />
      <line
         x1="0"
         y1="120"
         x2="-10"
         y2="130"
         id="line1369" />
      <line
         x1="0"
         y1="125"
         x2="-10"
         y2="135"
         id="line1371" />
      <line
         x1="0"
         y1="130"
         x2="-10"
         y2="140"
         id="line1373" />
      <line
         x1="0"
         y1="135"
         x2="-10"
         y2="145"
         id="line1375" />
      <line
         x1="0"
         y1="115"
         x2="10"
         y2="125"
         id="line1377" />
      <line
         x1="0"
         y1="120"
         x2="10"
         y2="130"
         id="line1379" />
      <line
         x1="0"
         y1="125"
         x2="10"
         y2="135"
         id="line1381" />
      <line
         x1="0"
         y1="130"
         x2="10"
         y2="140"
         id="line1383" />
      <line
         x1="0"
         y1="135"
         x2="10"
         y2="145"
         id="line1385" />
    </g>
  </g>
  <g
     transform="translate(600,600)"
     id="g1618">
    <polygon
       points="100,-100 500,-100 500,100 100,100 100,500 -100,500 -100,100 -500,100 -500,-100 -100,-100 -100,-500 100,-500"
       style="fill:none; stroke:#000000; stroke-width:10;"
       id="polygon1390" />
    <g
       id="g1444">
      <use
         x="0"
         y="500"
         xlink:href="#Feld1"
         style="fill:#FFFFFF;"
         id="use1392" />
      <use
         x="-100"
         y="500"
         xlink:href="#Feld1"
         style="fill:#000000;"
         id="use1394" />
      <use
         x="-100"
         y="400"
         xlink:href="#Feld1"
         style="fill:#FFFFFF;"
         id="use1396" />
      <use
         x="-100"
         y="300"
         xlink:href="#Feld1"
         style="fill:#FFFFFF;"
         id="use1398" />
      <use
         x="-100"
         y="200"
         xlink:href="#Feld1"
         style="fill:#FFFFFF;"
         id="use1400" />
      <use
         x="-100"
         y="100"
         xlink:href="#Feld1"
         style="fill:#FFFFFF;"
         id="use1402" />
      <use
         x="-200"
         y="100"
         xlink:href="#Feld1"
         style="fill:#FFFFFF;"
         id="use1404" />
      <use
         x="-300"
         y="100"
         xlink:href="#Feld1"
         style="fill:#FFFFFF;"
         id="use1406" />
      <use
         x="-400"
         y="100"
         xlink:href="#Feld1"
         style="fill:#FFFFFF;"
         id="use1408" />
      <use
         x="-500"
         y="100"
         xlink:href="#Feld1"
         style="fill:#FFFFFF;"
         id="use1410" />
      <use
         x="-400"
         y="400"
         xlink:href="#Feld2"
         style="fill:#000000;"
         id="use1412" />
      <use
         x="-400"
         y="500"
         xlink:href="#Feld2"
         style="fill:#000000;"
         id="use1414" />
      <use
         x="-500"
         y="400"
         xlink:href="#Feld2"
         style="fill:#000000;"
         id="use1416" />
      <use
         x="-500"
         y="500"
         xlink:href="#Feld2"
         style="fill:#000000;"
         id="use1418" />
      <use
         x="0"
         y="400"
         xlink:href="#Feld2"
         style="fill:#000000;"
         id="use1420" />
      <use
         x="0"
         y="300"
         xlink:href="#Feld2"
         style="fill:#000000;"
         id="use1422" />
      <use
         x="0"
         y="200"
         xlink:href="#Feld2"
         style="fill:#000000;"
         id="use1424" />
      <use
         x="0"
         y="100"
         xlink:href="#Feld2"
         style="fill:#000000;"
         id="use1426" />
      <use
         x="-165"
         y="370"
         xlink:href="#Pfeil"
         id="use1428" />
    </g>
    <g
       transform="rotate(90)"
       id="g1498">
      <use
         x="0"
         y="500"
         xlink:href="#Feld1"
         style="fill:#FFFFFF;"
         id="use1446" />
      <use
         x="-100"
         y="500"
         xlink:href="#Feld1"
         style="fill:#FFFF00;"
         id="use1448" />
      <use
         x="-100"
         y="400"
         xlink:href="#Feld1"
         style="fill:#FFFFFF;"
         id="use1450" />
      <use
         x="-100"
         y="300"
         xlink:href="#Feld1"
         style="fill:#FFFFFF;"
         id="use1452" />
      <use
         x="-100"
         y="200"
         xlink:href="#Feld1"
         style="fill:#FFFFFF;"
         id="use1454" />
      <use
         x="-100"
         y="100"
         xlink:href="#Feld1"
         style="fill:#FFFFFF;"
         id="use1456" />
      <use
         x="-200"
         y="100"
         xlink:href="#Feld1"
         style="fill:#FFFFFF;"
         id="use1458" />
      <use
         x="-300"
         y="100"
         xlink:href="#Feld1"
         style="fill:#FFFFFF;"
         id="use1460" />
      <use
         x="-400"
         y="100"
         xlink:href="#Feld1"
         style="fill:#FFFFFF;"
         id="use1462" />
      <use
         x="-500"
         y="100"
         xlink:href="#Feld1"
         style="fill:#FFFFFF;"
         id="use1464" />
      <use
         x="-400"
         y="400"
         xlink:href="#Feld2"
         style="fill:#FFFF00;"
         id="use1466" />
      <use
         x="-400"
         y="500"
         xlink:href="#Feld2"
         style="fill:#FFFF00;"
         id="use1468" />
      <use
         x="-500"
         y="400"
         xlink:href="#Feld2"
         style="fill:#FFFF00;"
         id="use1470" />
      <use
         x="-500"
         y="500"
         xlink:href="#Feld2"
         style="fill:#FFFF00;"
         id="use1472" />
      <use
         x="0"
         y="400"
         xlink:href="#Feld2"
         style="fill:#FFFF00;"
         id="use1474" />
      <use
         x="0"
         y="300"
         xlink:href="#Feld2"
         style="fill:#FFFF00;"
         id="use1476" />
      <use
         x="0"
         y="200"
         xlink:href="#Feld2"
         style="fill:#FFFF00;"
         id="use1478" />
      <use
         x="0"
         y="100"
         xlink:href="#Feld2"
         style="fill:#FFFF00;"
         id="use1480" />
      <use
         x="-165"
         y="370"
         xlink:href="#Pfeil"
         id="use1482" />
    </g>
    <g
       transform="rotate(180)"
       id="g1552">
      <use
         x="0"
         y="500"
         xlink:href="#Feld1"
         style="fill:#FFFFFF;"
         id="use1500" />
      <use
         x="-100"
         y="500"
         xlink:href="#Feld1"
         style="fill:#009900;"
         id="use1502" />
      <use
         x="-100"
         y="400"
         xlink:href="#Feld1"
         style="fill:#FFFFFF;"
         id="use1504" />
      <use
         x="-100"
         y="300"
         xlink:href="#Feld1"
         style="fill:#FFFFFF;"
         id="use1506" />
      <use
         x="-100"
         y="200"
         xlink:href="#Feld1"
         style="fill:#FFFFFF;"
         id="use1508" />
      <use
         x="-100"
         y="100"
         xlink:href="#Feld1"
         style="fill:#FFFFFF;"
         id="use1510" />
      <use
         x="-200"
         y="100"
         xlink:href="#Feld1"
         style="fill:#FFFFFF;"
         id="use1512" />
      <use
         x="-300"
         y="100"
         xlink:href="#Feld1"
         style="fill:#FFFFFF;"
         id="use1514" />
      <use
         x="-400"
         y="100"
         xlink:href="#Feld1"
         style="fill:#FFFFFF;"
         id="use1516" />
      <use
         x="-500"
         y="100"
         xlink:href="#Feld1"
         style="fill:#FFFFFF;"
         id="use1518" />
      <use
         x="-400"
         y="400"
         xlink:href="#Feld2"
         style="fill:#009900;"
         id="use1520" />
      <use
         x="-400"
         y="500"
         xlink:href="#Feld2"
         style="fill:#009900;"
         id="use1522" />
      <use
         x="-500"
         y="400"
         xlink:href="#Feld2"
         style="fill:#009900;"
         id="use1524" />
      <use
         x="-500"
         y="500"
         xlink:href="#Feld2"
         style="fill:#009900;"
         id="use1526" />
      <use
         x="0"
         y="400"
         xlink:href="#Feld2"
         style="fill:#009900;"
         id="use1528" />
      <use
         x="0"
         y="300"
         xlink:href="#Feld2"
         style="fill:#009900;"
         id="use1530" />
      <use
         x="0"
         y="200"
         xlink:href="#Feld2"
         style="fill:#009900;"
         id="use1532" />
      <use
         x="0"
         y="100"
         xlink:href="#Feld2"
         style="fill:#009900;"
         id="use1534" />
      <use
         x="-165"
         y="370"
         xlink:href="#Pfeil"
         id="use1536" />
    </g>
    <g
       transform="rotate(270)"
       id="g1606">
      <use
         x="0"
         y="500"
         xlink:href="#Feld1"
         style="fill:#FFFFFF;"
         id="use1554" />
      <use
         x="-100"
         y="500"
         xlink:href="#Feld1"
         style="fill:#FF0000;"
         id="use1556" />
      <use
         x="-100"
         y="400"
         xlink:href="#Feld1"
         style="fill:#FFFFFF;"
         id="use1558" />
      <use
         x="-100"
         y="300"
         xlink:href="#Feld1"
         style="fill:#FFFFFF;"
         id="use1560" />
      <use
         x="-100"
         y="200"
         xlink:href="#Feld1"
         style="fill:#FFFFFF;"
         id="use1562" />
      <use
         x="-100"
         y="100"
         xlink:href="#Feld1"
         style="fill:#FFFFFF;"
         id="use1564" />
      <use
         x="-200"
         y="100"
         xlink:href="#Feld1"
         style="fill:#FFFFFF;"
         id="use1566" />
      <use
         x="-300"
         y="100"
         xlink:href="#Feld1"
         style="fill:#FFFFFF;"
         id="use1568" />
      <use
         x="-400"
         y="100"
         xlink:href="#Feld1"
         style="fill:#FFFFFF;"
         id="use1570" />
      <use
         x="-500"
         y="100"
         xlink:href="#Feld1"
         style="fill:#FFFFFF;"
         id="use1572" />
      <use
         x="-400"
         y="400"
         xlink:href="#Feld2"
         style="fill:#FF0000;"
         id="use1574" />
      <use
         x="-400"
         y="500"
         xlink:href="#Feld2"
         style="fill:#FF0000;"
         id="use1576" />
      <use
         x="-500"
         y="400"
         xlink:href="#Feld2"
         style="fill:#FF0000;"
         id="use1578" />
      <use
         x="-500"
         y="500"
         xlink:href="#Feld2"
         style="fill:#FF0000;"
         id="use1580" />
      <use
         x="0"
         y="400"
         xlink:href="#Feld2"
         style="fill:#FF0000;"
         id="use1582" />
      <use
         x="0"
         y="300"
         xlink:href="#Feld2"
         style="fill:#FF0000;"
         id="use1584" />
      <use
         x="0"
         y="200"
         xlink:href="#Feld2"
         style="fill:#FF0000;"
         id="use1586" />
      <use
         x="0"
         y="100"
         xlink:href="#Feld2"
         style="fill:#FF0000;"
         id="use1588" />
      <use
         x="-165"
         y="370"
         xlink:href="#Pfeil"
         id="use1590" />
    </g>
    <path
       transform="translate(-500,-318)"
       style="fill:#000000"
       d="M 14.18,117 C 11.98,117 9.032,116.6 7.622,116.2 6.208,115.7 4.105,114.9 2.937,114.2 1.769,113.6 0.5215,112.2 0.1635,111.1 -0.1945,109.9 0.0555,108.4 0.7185,107.6 1.381,106.8 2.993,106.1 4.3,106.1 5.958,106.1 6.678,106.7 6.678,108 6.678,109 7.398,110.5 8.292,111.2 9.372,112.1 12.44,112.5 17.68,112.4 22.43,112.3 27.62,111.4 30.99,110.3 34.03,109.2 38.61,106.9 41.17,105.1 43.73,103.3 48.72,98.41 52.27,94.2 55.82,89.99 62.73,80.95 67.62,74.11 72.52,67.26 79.29,57.14 82.67,51.61 86.05,46.08 91.98,35.93 95.88,29.06 99.68,22.18 104.7,14.15 107,11.2 109.3,8.264 112.6,4.714 114.4,3.334 117.1,1.274 118,1.044 119.2,2.054 120,2.754 120.7,4.934 120.7,7.024 120.7,9.064 119.8,13.37 118.7,16.58 117.6,19.79 112.6,30.49 107.7,40.35 102.8,50.23 98.98,58.76 99.38,59.31 99.68,59.89 100.8,59.29 101.8,57.94 102.8,56.62 105.7,51.95 108.3,47.55 110.8,43.15 115.8,34.27 119.4,27.84 123,21.39 128.1,13.54 130.6,10.38 133.1,7.244 136.7,3.774 138.6,2.684 141.9,0.7443 142,0.7343 143.4,2.634 144.3,3.914 144.6,5.714 144.2,8.054 143.8,9.974 142.5,14.07 141.2,17.13 139.9,20.2 134.8,30.02 129.9,38.94 124.9,47.87 120.6,56.32 120.2,57.73 119.9,59.14 119.8,60.49 120.1,60.75 120.3,61 121.7,60.42 123.2,59.45 124.8,58.39 127.4,54.47 129.8,49.56 131.9,45.09 135.5,39.3 137.8,36.71 140.1,34.11 143.2,31.33 144.8,30.53 146.3,29.72 148.9,29.06 150.5,29.06 152.1,29.06 154,29.72 154.7,30.52 155.4,31.42 155.6,33.15 155.2,35.07 154.8,36.77 153,39.69 151.1,41.55 148.8,43.91 146.7,45.02 144.1,45.24 140.7,45.53 140.2,46.01 136.5,52.96 133.9,57.97 132.9,60.7 133.6,61.38 134.3,62.07 135.4,62.04 137.1,61.3 138.4,60.69 142.3,57.52 145.8,54.24 150.3,50.08 153.8,45.37 157.6,38.66 163.1,29.12 163.1,29.06 167,29.06 170.4,29.06 170.8,29.29 170.2,31.09 L 169.5,33.12 172.9,31.1 C 174.7,29.98 177,29.07 177.9,29.06 178.9,29.06 180.4,30.22 181.3,31.64 182.8,33.88 182.9,34.7 181.7,37.88 181,39.9 178.3,45.19 175.6,49.64 172.9,54.09 170.5,58.59 170.1,59.64 169.5,61.23 169.8,61.14 172.1,59.05 173.7,57.68 178,52.5 181.7,47.55 185.4,42.6 190.4,35.51 192.7,31.81 195,28.1 197.3,25.06 197.7,25.06 198.2,25.06 198.1,26.31 197.5,27.84 196.6,30.15 196.9,31.58 199.2,36.39 201.3,40.9 201.8,42.97 201.2,45.86 200.9,47.89 199.6,51.5 198.5,53.89 197.4,56.3 194.6,59.53 192.4,61.14 190.2,62.74 187.1,64.05 185.5,64.05 184,64.05 181.8,63.12 180.6,61.99 179.3,60.69 178.7,58.94 178.9,57.24 179.1,55.33 179.9,54.46 181.5,54.23 182.9,54.03 184,54.55 184.4,55.61 184.7,56.55 184.5,58.15 183.9,59.17 183.2,60.19 182.7,61.25 182.7,61.54 182.7,61.82 183.1,62.05 183.7,62.05 184.2,62.05 186.5,58.79 188.7,54.8 190.9,50.81 193.6,44.74 194.7,41.3 195.9,37.5 196.3,34.25 195.9,33.01 195.2,31.28 194.1,32.51 188.2,41.26 184.4,46.92 178.5,54.36 175.2,57.8 170.7,62.39 168.4,64.05 166.4,64.05 164.8,64.05 163.4,63.29 162.7,62.12 162.2,61.06 162,59.37 162.4,58.37 162.8,57.37 166.1,51.47 169.9,45.25 173.6,39.04 176.7,33.53 176.7,33 176.7,32.48 175.8,32.05 174.7,32.05 173.7,32.05 171.3,33.35 169.5,34.94 167.6,36.57 163.1,43.54 159.2,50.92 L 152.2,64 148,64.03 C 145.6,64.04 143.7,63.88 143.7,63.68 143.7,63.47 144.9,61.11 146.4,58.43 L 149.1,53.55 144.2,57.91 C 141.4,60.31 138.2,62.67 136.9,63.16 135.6,63.65 133.5,64.05 132.1,64.05 130.5,64.05 129.1,63.08 127.9,61.11 126.3,58.5 126,58.36 125,59.88 124.4,60.82 122.3,62.48 120.3,63.57 L 116.5,65.55 114.5,63.06 C 112.9,61.06 112.6,59.7 113.1,56.16 113.5,53.59 116.6,46.23 120.6,38.52 124.3,31.26 130.2,20.99 133.7,15.7 137.1,10.41 139.7,5.524 139.4,4.824 139.1,4.034 137.3,5.294 134.6,8.194 132.1,10.74 128,16.6 125.3,21.2 122.7,25.8 117.5,34.95 113.9,41.55 110.3,48.15 105.4,56.17 102.9,59.38 100.5,62.58 97.78,65.46 96.98,65.77 96.18,66.09 95.08,65.71 94.59,64.95 94.11,64.18 93.7,61.27 93.7,58.48 93.69,55.69 94.34,51.19 95.16,48.48 95.98,45.77 100.7,35.53 105.7,25.74 110.6,15.94 114.7,7.504 114.7,6.994 114.7,6.474 114.3,6.054 113.8,6.054 113.3,6.054 111,8.644 108.7,11.8 106.4,14.97 100.5,24.76 95.49,33.55 90.54,42.35 83.11,54.72 78.97,61.05 74.83,67.37 67.01,78.43 61.61,85.62 56.2,92.8 49.58,101 46.91,103.7 44.24,106.4 39.73,109.9 36.89,111.4 34.06,112.9 28.69,114.8 24.96,115.6 21.23,116.4 16.38,117 14.18,117 z M 143.8,43.54 C 145.1,43.14 147.3,41.86 148.5,40.69 149.8,39.51 151.6,37.26 152.4,35.69 153.5,33.5 153.6,32.55 152.7,31.7 151.8,30.84 150.7,31.46 148.4,34.2 146.6,36.21 144.4,39.29 143.3,41.06 L 141.5,44.26 143.8,43.54 z M 207.5,64.57 C 205.6,65.05 204.3,64.67 202.8,63.14 201.5,61.86 200.7,59.76 200.7,57.73 200.7,55.9 201.4,52.19 202.4,49.48 203.3,46.77 204.7,43.43 205.5,42.05 206.4,40.68 208.4,38.05 210.1,36.21 211.8,34.38 214.9,32.01 216.9,30.97 219,29.92 222.2,29.06 224.1,29.06 226.7,29.06 227.9,29.64 228.7,31.15 229.4,32.29 229.6,34.32 229.3,35.64 228.8,37.39 228,38.05 226.1,38.05 224.8,38.05 223.4,37.41 223.1,36.63 222.8,35.85 223,34.27 223.7,33.13 224.3,31.99 224.4,31.07 224,31.07 223.6,31.08 220.4,35.24 217,40.31 213.6,45.39 209.6,52.13 208,55.29 206.1,59.44 205.6,61.34 206.4,62.13 207.2,62.92 208.3,62.78 210.5,61.64 212.2,60.77 215.8,57.82 218.5,55.07 221.2,52.33 226,45.47 229.2,39.82 232.4,34.17 237.3,26.22 240,22.14 242.8,18.05 246.9,12.79 249.3,10.44 252,7.674 254.8,5.944 257.1,5.504 259.4,5.074 261.3,5.274 262.2,6.064 263,6.744 263.7,8.164 263.7,9.214 263.7,10.27 262.8,12.82 261.8,14.87 260.7,16.93 257.7,20.69 254.9,23.24 252.2,25.79 248.1,28.82 245.9,29.97 243.6,31.12 241.3,32.92 240.7,33.98 239.9,35.47 241,35.14 245.4,32.47 248.5,30.6 251.9,29.06 252.8,29.06 253.8,29.06 255.2,29.33 256.1,29.67 257,30 257.7,31.3 257.7,32.54 257.7,33.8 255.4,39.71 252.6,45.69 249.8,51.66 247.1,57.55 246.6,58.76 246.1,60.13 246.2,61.22 246.8,61.62 247.4,61.97 249.9,60.14 252.3,57.56 254.8,54.98 257,53.05 257.3,53.28 257.5,53.51 256.6,55.24 255.2,57.12 253.8,59.01 250.8,61.55 248.6,62.78 245.5,64.45 244,64.75 242.6,64 241.6,63.45 240.3,62.12 239.7,61.03 238.9,59.5 239.2,57.56 241.3,52.3 242.8,48.59 245.3,42.92 246.9,39.7 248.5,36.48 249.6,33.6 249.3,33.29 249,32.98 247.6,33.21 246.3,33.81 245,34.41 242.4,36.23 240.6,37.86 238.6,39.59 234.7,45.62 231.2,52.42 L 225.2,64.02 220.9,64.03 216.7,64.05 218.7,60.05 C 219.8,57.85 220.3,56.05 219.8,56.05 219.3,56.05 218.7,56.4 218.5,56.84 218.4,57.27 216.4,59.04 214.2,60.77 212,62.51 209,64.22 207.5,64.57 z M 244.2,29.06 C 244.5,29.06 246.8,27.72 249.2,26.07 251.6,24.43 255.1,21.23 257.1,18.96 259,16.69 261,13.6 261.5,12.09 262.1,10.57 262.1,8.774 261.7,8.084 261.2,7.274 260.4,7.134 259.4,7.694 258.6,8.164 255.9,11.03 253.4,14.06 251,17.08 247.8,21.7 246.2,24.31 244.7,26.92 243.8,29.06 244.2,29.06 z"
       id="path1608" />
    <path
       transform="translate(300,-300)"
       style="fill:#000000"
       d="M 54.65,77.57 C 52.75,75.47 52.48,71.76 53.95,67.9 55.33,64.25 63.11,56.19 69.47,51.81 76.02,47.3 77.54,44.8 72.43,46.94 67.24,49.11 62.37,48.78 60.52,46.14 58.24,42.89 58.56,40.63 62.46,32.49 64.39,28.47 65.71,24.77 65.4,24.27 64.59,22.95 62.85,23.15 61.04,24.77 60.17,25.55 57.88,26.59 55.96,27.07 52.85,27.86 51.81,29.1 46.63,38.16 L 40.8,48.36 36.88,48.36 C 32.57,48.36 32.23,47.85 34.47,44.65 35.77,42.79 35.1,42.96 29.46,45.9 21.73,49.92 18.65,49.56 18.15,44.55 L 17.84,41.46 13.32,44.91 C 8.035,48.94 2.69,49.6 0.9895,46.43 -0.4956,43.65 -0.2866,37.42 1.466,32.29 6.225,18.35 22.62,7.93 29.55,14.45 L 31.77,16.53 32.43,14.45 C 32.96,12.8 33.92,12.36 37.03,12.36 39.19,12.36 40.96,12.59 40.96,12.87 40.96,13.16 37.81,19.67 33.96,27.36 30.11,35.05 26.96,42.01 26.96,42.85 26.96,45.51 30.58,44.47 34.78,40.61 37.27,38.32 41.47,32.1 45.57,24.61 L 52.29,12.36 56.12,12.36 C 58.23,12.36 59.96,12.76 59.96,13.26 59.96,13.75 58.84,16.11 57.47,18.51 53.97,24.63 54.18,25.7 58.46,23.66 61.39,22.26 61.96,21.47 61.96,18.76 61.96,13.96 62.89,12.36 65.68,12.36 67.87,12.36 68.12,12.7 67.67,15.11 67.38,16.62 66.83,18.87 66.44,20.11 65.34,23.59 68.03,22.93 72.01,18.73 73.91,16.74 77.4,14.23 79.77,13.16 84.05,11.23 84.11,11.23 88.09,13.19 91.39,14.83 92.19,14.93 92.63,13.77 92.98,12.85 94.71,12.36 97.56,12.36 99.98,12.36 102,12.51 102,12.7 102,12.89 98.76,18.82 94.96,25.87 91.1,32.92 88.11,38.84 88.3,39.03 89.17,39.9 97.06,33.05 98.56,30.13 103.8,19.97 111.9,12.36 117.5,12.36 124.4,12.36 125,18.24 118.9,24.88 115.6,28.48 114.1,29.36 111.4,29.36 108.2,29.36 107.8,29.74 103.9,37.49 99.28,46.8 99.58,49.08 105.4,45.99 111.3,42.81 118.7,34.16 124.8,23.36 L 130.8,12.86 134.9,12.86 C 137.1,12.86 139,13.03 139,13.24 139,13.45 137.6,16.06 135.9,19.05 134.2,22.03 133,24.66 133.2,24.89 133.4,25.12 135.2,24.52 137.1,23.57 139.6,22.29 140.4,21.27 140.3,19.62 139.9,15.97 141.7,12.36 144,12.36 146.8,12.36 147.4,14.6 145.6,18.17 144.3,20.73 144.3,21.33 145.5,22.33 146.6,23.26 147.2,22.98 148.5,20.96 150.7,17.64 158.7,12.36 161.6,12.36 165.1,12.36 167.3,15.15 166.6,18.77 165.7,23.31 159,29.36 154.8,29.36 151.6,29.36 151.2,29.78 147.7,36.88 145.7,41.01 144,45.06 144,45.88 144,48.95 148.4,46.96 154.8,41.01 156.5,39.34 158,38.42 158,38.98 158,40.11 153.8,44.19 150,46.71 146.5,49.05 140.4,48.89 139,46.43 137.3,43.2 137.8,40.13 141.4,32.65 145.9,23.35 144.9,22.02 136.4,26.09 130.8,28.75 130.2,29.39 125,38.6 L 119.5,48.3 115.3,48.33 111.1,48.36 113.7,43.71 116.3,39.06 110.8,43.57 C 104.7,48.55 101,49.94 97.96,48.36 94.77,46.65 93.66,43.67 94.89,40.13 95.46,38.43 95.86,36.89 95.66,36.71 95.46,36.54 93,38.07 90.16,40.13 85.65,43.38 83.93,45.77 76.78,58.7 68.36,73.94 65.24,77.55 59.4,78.79 57.11,79.27 55.91,78.97 54.65,77.57 z M 58.72,76.11 C 59.98,74.55 69.96,56.54 69.96,55.83 69.96,55.54 68.71,55.96 67.18,56.75 63.33,58.74 55.18,67.65 54.41,70.7 53.17,75.66 56.11,79.35 58.72,76.11 z M 74.85,42.8 C 78.71,39.55 86.4,27.19 88.04,21.58 90.47,13.31 85.38,13.37 78.77,21.69 74.08,27.6 67.96,39.71 67.96,43.08 67.96,46.19 70.97,46.06 74.85,42.8 z M 16.01,40.7 C 21.38,35.84 28.24,24.04 28.36,19.42 28.45,16.29 28.14,15.82 25.84,15.56 23.81,15.32 22.36,16.24 19.32,19.68 14.25,25.45 6.375,40.41 7.245,42.66 8.285,45.39 11.65,44.64 16.01,40.7 z M 114,26.88 C 119.2,24.19 123.7,13.69 119.3,14.54 116.3,15.11 108,28.36 110.5,28.36 110.9,28.36 112.4,27.7 114,26.88 z M 161.3,23.25 C 165.2,19.23 166.1,14.86 163,14.86 161.7,14.86 153.1,25.85 153,27.68 153,29.51 157.7,26.95 161.3,23.25 z M 26.04,5.96 C 24.21,3.75 25.64,0.357 28.4,0.357 31.55,0.357 33.68,3 32.3,5.19 30.91,7.41 27.59,7.82 26.04,5.96 z M 36.89,5.78 C 35.12,3.64 36.84,0.956 40.23,0.549 42.11,0.322 42.97,0.799 43.46,2.35 44.76,6.47 39.67,9.13 36.89,5.78 z"
       id="path1610" />
    <path
       transform="translate(-370,235)"
       style="fill:#000000"
       d="M 2.009,55.99 C 0.5486,55.37 -0.1814,54.35 0.0386,53.25 0.3386,51.79 1.409,51.53 6.439,51.66 L 12.48,51.82 15.64,47 C 17.38,44.34 21.83,36.62 25.54,29.83 32.04,17.95 38.69,9.67 44.82,5.82 L 47.32,4.26 42.54,3.24 C 36.65,1.988 32.09,2.938 25.98,6.7 21.27,9.6 15.32,17.19 14.17,21.79 12.81,27.21 18,29.73 22.97,26.06 26.06,23.77 26.96,24.71 24.08,27.22 20.37,30.45 17.8,31.23 14.87,30.02 9.319,27.72 8.569,21.36 12.84,12.98 15.36,8.04 21.89,2.348 26.51,1.068 32.05,-0.472 40.77,-0.242 46.13,1.578 49.73,2.808 51.81,2.948 55.32,2.198 57.92,1.648 60.09,1.608 60.4,2.118 60.7,2.598 60.11,2.998 59.08,2.998 58.05,2.998 56.44,3.56 55.5,4.25 53.9,5.42 53.92,5.75 55.81,9.46 56.92,11.64 57.83,15.37 57.83,17.74 57.83,26.73 50.14,43.25 43.53,48.46 39.35,51.75 41.06,51.65 47.33,48.22 52.48,45.41 56.88,39.94 62.51,29.33 64.99,24.67 65.63,24.13 69.06,23.81 73.64,23.37 73.94,22.35 64.81,38.67 60.84,45.77 58.12,51.69 58.61,52.18 60.3,53.87 66.4,48.36 71.55,40.49 78.13,30.42 83.45,25.35 88.38,24.42 93.09,23.54 95.24,24.82 95.63,28.72 96,32.36 93.34,33.94 90.92,31.52 89.65,30.25 89.59,29.61 90.61,27.98 91.29,26.89 91.51,26 91.09,26.01 88.96,26.03 72.73,53.23 74.06,54.56 75.63,56.14 80.35,53.55 85.66,48.21 89.21,44.63 93.76,38.23 97.83,31.07 111,7.8 121.9,-2.462 126.8,3.53 130.1,7.49 121.6,19.77 112.2,24.5 108.6,26.34 105.5,29.07 106.3,29.8 106.4,29.96 108.3,28.94 110.4,27.52 115.6,23.97 118.5,23.4 120.7,25.45 123.1,27.61 122.6,29.4 115.9,42.73 113.1,48.36 110.8,53.2 110.8,53.48 110.8,53.77 111.7,54 112.7,54 113.8,54 116.2,52.09 118.2,49.75 120.2,47.41 121.8,45.98 121.8,46.57 121.8,47.16 120.2,49.5 118.3,51.78 112.5,58.45 104.8,58.65 104.8,52.13 104.8,50.68 107.1,44.82 109.8,39.1 112.6,33.38 114.6,28.45 114.3,28.14 113.3,27.16 106.7,31.32 103.9,34.64 102.5,36.41 99.11,42.16 96.55,47.43 L 91.76,57 87.78,57 83.79,57 85.93,52.75 88.06,48.5 85.2,51.1 C 80.55,55.3 77.55,57 74.76,57 71.63,57 68.83,54.21 68.83,51.09 68.83,48.88 68.74,48.9 64.97,51.89 56.06,58.94 47.94,58.09 50.87,50.41 51.4,48.99 51.5,47.98 51.09,48.16 50.67,48.35 46.73,50.3 42.33,52.5 34.7,56.32 33.96,56.49 26.33,56.18 21.93,56 16.98,55.81 15.33,55.75 13.68,55.69 10.53,55.94 8.329,56.3 6.129,56.67 3.289,56.52 2.009,55.99 z M 9.329,54 C 9.699,53.4 8.489,53 6.329,53 4.179,53 2.959,53.4 3.329,54 3.669,54.55 5.019,55 6.329,55 7.639,55 8.989,54.55 9.329,54 z M 30.85,52.17 C 35.64,49.65 44.1,38.17 47.87,29.06 51.17,21.11 52.69,10.62 50.93,8.01 50.08,6.77 49.33,7.09 46.31,10.01 41.64,14.53 37.52,20.81 29.91,35 26.52,41.33 22.1,48.19 20.08,50.25 L 16.42,54 21.89,54 C 25.26,54 28.7,53.3 30.85,52.17 z M 112.8,22.35 C 120.1,17.52 125.8,10.28 125.8,5.97 125.8,2.198 122.5,4.19 117.3,11.19 108.5,22.94 107.2,26.09 112.8,22.35 z M 70.4,18.43 C 68.43,16.46 68.43,15.54 70.4,13.57 72.19,11.78 72.13,11.79 74.25,12.61 76.46,13.46 76.23,17.72 73.9,18.96 72.44,19.74 71.58,19.61 70.4,18.43 z"
       id="path1612" />
    <path
       transform="translate(300, 230)"
       style="fill:#000000"
       d="M 19.47,58.95 C 16.51,57.22 17.44,54.4 25.3,41.37 29.47,34.45 32.51,28.42 32.05,27.96 30.64,26.55 24.64,30.19 22.17,33.95 20.88,35.92 17.2,42.26 13.99,48.03 L 8.167,58.53 3.783,58.85 C -0.587,59.16 -0.597,59.15 0.893,56.85 1.723,55.57 6.113,47.89 10.67,39.78 L 18.93,25.03 22.86,25.03 C 26.47,25.03 26.7,25.19 25.73,27.01 24.7,28.94 24.76,28.94 28.21,26.91 32.65,24.29 36.42,25 37.33,28.62 38.09,31.64 37.36,33.41 30.03,46.32 26.97,51.7 24.69,56.34 24.97,56.61 26.28,57.92 40.59,39.42 48.22,26.56 48.94,25.35 50.27,24.97 52.97,25.2 L 56.67,25.53 48.67,39.38 C 44.3,47 40.72,53.63 40.72,54.13 40.72,54.62 41.59,55.03 42.64,55.03 45.47,55.03 50.39,49.63 53.87,42.65 58.17,34.24 61.27,30.36 66.17,27.48 70.67,24.86 76.57,24.26 78.57,26.23 81.37,29.09 78.67,34.99 75.07,33.63 73.87,33.15 73.67,32.21 74.07,29.76 L 74.67,26.53 71.87,29.79 C 67.57,34.78 56.77,53.49 56.77,55.9 56.77,62.6 70.97,50.68 77.77,38.25 84.37,26.22 94.17,11.94 99.2,7.116 103,3.336 104.3,2.686 108,2.616 L 112.3,2.526 112.2,6.336 C 112,11.61 107.5,17.55 99.7,22.79 92.47,27.57 89.77,29.92 89.77,31.36 89.77,31.9 90.47,31.65 91.47,30.8 94.17,28.47 101.5,25.03 103.7,25.03 104.8,25.03 106.2,25.97 106.8,27.11 107.8,28.87 107,31.19 101.9,41.86 95.57,54.84 94.87,57.03 96.87,57.03 99.6,57.03 105.8,48.45 113.4,34.2 L 121.6,19.03 118.5,19.03 C 116.8,19.03 115.8,18.69 116.2,18.28 116.6,17.87 118.2,17.53 119.6,17.53 121.7,17.53 122.8,16.62 124.6,13.28 126.7,9.396 127.3,9.026 130.9,9.026 135.4,9.026 135.5,9.406 132.8,13.53 130.1,17.61 130.3,18.38 133.8,17.68 135.5,17.35 136.8,17.49 136.8,17.99 136.8,18.5 135.2,19.05 133.2,19.22 129.6,19.53 129.5,19.72 120.7,35.85 110,55.44 109.6,57.23 116.9,53.46 122,50.87 121.4,52.69 116.2,56.02 110.4,59.68 106,59.77 104.2,56.25 103.2,54.15 103,54.11 101.7,55.66 99.4,58.43 93.97,60.24 91.67,59.02 87.87,56.98 88.27,53.75 93.67,41.95 96.47,35.8 98.8,30.37 98.8,29.9 98.8,28.22 95.97,29.06 91.97,31.98 88.77,34.27 86.47,37.63 81.57,46.97 L 75.27,59 71.47,59.01 C 67.37,59.03 67.17,58.68 69.27,55.03 71.57,50.94 70.97,50.45 67.47,53.68 60.37,60.3 56.47,61.57 53.37,58.2 52.47,57.2 51.77,55.12 51.77,53.6 L 51.77,50.82 48.04,54.05 C 43.56,57.99 38.24,60.33 35.65,59.51 33.49,58.82 32.16,54.94 33.17,52.28 33.54,51.32 32.12,52.16 30.03,54.16 26.78,57.26 22.64,60.11 21.54,60 21.36,59.98 20.43,59.51 19.47,58.95 z M 104.8,17.11 C 109.9,12.04 112.8,5.636 110.9,3.746 110.1,2.956 108.7,3.876 105.8,7.056 101.6,11.54 95.27,20.5 94.07,23.55 93.47,25.12 93.67,25.11 96.77,23.53 98.6,22.59 102.2,19.7 104.8,17.11 z M 52.77,18.58 C 51.37,16.86 52.17,13.45 54.27,12.65 57.77,11.32 60.47,14.72 58.67,18.1 57.47,20.38 54.47,20.62 52.77,18.58 z"
       id="path1614" />
    <text
       x="450"
       y="250"
       style="fill:#000000; stroke:none; font-family:Arial, sans-serif; text-anchor:middle; font-size:36px; font-weight:bold;"
       id="text1616">®</text>
  </g>
</svg>
